<?xml version="1.0" encoding="utf-8"?>
<!-- Generator: Adobe Illustrator 24.3.0, SVG Export Plug-In . SVG Version: 6.00 Build 0)  -->
<svg version="1.1" id="Layer_1" xmlns="http://www.w3.org/2000/svg" xmlns:xlink="http://www.w3.org/1999/xlink" x="0px" y="0px"
	 viewBox="0 0 16 16" style="enable-background:new 0 0 16 16;" xml:space="preserve">
<style type="text/css">
	.st0{fill:#FFFFFF;}
</style>
<path class="st0" d="M8.6,10c-0.3-0.3-0.9-0.3-1.2,0c-1,1-1.9,2-2.9,2.9c-0.9,0.9-1.8,1.8-2.7,2.6c-0.5,0.5-1.1,0.6-1.5,0.1
	c-0.3-0.4-0.5-0.9,0.1-1.5c1.9-1.9,3.7-3.8,5.6-5.7c0.4-0.4,0.5-0.6,0-1.1C4.2,5.6,2.3,3.7,0.5,1.8c-0.6-0.6-0.6-1.1-0.2-1.5
	c0.4-0.4,1-0.4,1.6,0.2C3.8,2.3,5.6,4.2,7.4,6c0.5,0.5,0.7,0.5,1.1,0c1.8-1.9,3.6-3.7,5.5-5.5c0.4-0.4,0.9-0.7,1.5-0.3
	c0.6,0.4,0.6,1,0.1,1.6c-1.2,1.3-2.5,2.5-3.7,3.8c-0.7,0.7-1.3,1.4-2,2c-0.4,0.4-0.4,0.6,0,1c1.9,1.9,3.8,3.8,5.6,5.7
	c0.6,0.6,0.6,1.1,0.2,1.5c-0.5,0.5-1.1,0.4-1.7-0.2C12.2,13.7,10.4,11.8,8.6,10z"/>
</svg>
