<?xml version="1.0" encoding="UTF-8" standalone="no"?>
<svg
   xmlns:dc="http://purl.org/dc/elements/1.1/"
   xmlns:cc="http://creativecommons.org/ns#"
   xmlns:rdf="http://www.w3.org/1999/02/22-rdf-syntax-ns#"
   xmlns:svg="http://www.w3.org/2000/svg"
   xmlns="http://www.w3.org/2000/svg"
   xmlns:sodipodi="http://sodipodi.sourceforge.net/DTD/sodipodi-0.dtd"
   xmlns:inkscape="http://www.inkscape.org/namespaces/inkscape"
   inkscape:version="1.0 (4035a4f, 2020-05-01)"
   sodipodi:docname="comp-icon-big.svg"
   id="svg60"
   version="1.1"
   fill="none"
   viewBox="0 0 256 256.00046"
   height="256.00046"
   width="256">
  <metadata
     id="metadata66">
    <rdf:RDF>
      <cc:Work
         rdf:about="">
        <dc:format>image/svg+xml</dc:format>
        <dc:type
           rdf:resource="http://purl.org/dc/dcmitype/StillImage" />
        <dc:title></dc:title>
      </cc:Work>
    </rdf:RDF>
  </metadata>
  <defs
     id="defs64" />
  <sodipodi:namedview
     inkscape:current-layer="svg60"
     inkscape:window-maximized="0"
     inkscape:window-y="0"
     inkscape:window-x="0"
     inkscape:cy="4.9506418"
     inkscape:cx="9.285156"
     inkscape:zoom="1"
     fit-margin-bottom="0"
     fit-margin-right="0"
     fit-margin-left="0"
     fit-margin-top="0"
     showgrid="false"
     id="namedview62"
     inkscape:window-height="866"
     inkscape:window-width="1193"
     inkscape:pageshadow="2"
     inkscape:pageopacity="0"
     guidetolerance="10"
     gridtolerance="10"
     objecttolerance="10"
     borderopacity="1"
     bordercolor="#666666"
     pagecolor="#ffffff" />
  <g
     transform="scale(13.901442)"
     id="g71">
    <path
       d="m 9.207706,18.415388 c 5.08525,0 9.20765,-4.1224 9.20765,-9.2077 C 18.415356,4.122428 14.292956,0 9.207706,0 4.122426,0 0,4.122428 0,9.207688 c 0,5.0853 4.122426,9.2077 9.207706,9.2077 z"
       fill="#070a0e"
       id="path54" />
    <path
       d="m 9.201066,17.726388 c 4.70619,0 8.52139,-3.8152 8.52139,-8.5214 0,-4.70624 -3.8152,-8.52139 -8.52139,-8.52139 -4.70623,0 -8.52138,3.81515 -8.52138,8.52139 0,4.7062 3.81515,8.5214 8.52138,8.5214 z"
       fill="#070a0e"
       id="path56" />
    <path
       fill-rule="evenodd"
       clip-rule="evenodd"
       d="m 5.318866,12.295188 c -0.27542,-0.1684 -0.44387,-0.4684 -0.44387,-0.7905 v -1.7988 c 0,-0.0689 0.01845,-0.1353 0.05287,-0.1943 0.10697,-0.1844 0.34427,-0.2471 0.5287,-0.1389 l 4.05989,2.3668 c 0.2373,0.1389 0.3837,0.3922 0.3837,0.6676 v 1.864 c 0,0.0848 -0.0234,0.1696 -0.0677,0.2422 -0.134,0.2188 -0.4192,0.2877 -0.6381,0.1537 z m 6.05179,-3.41555 c 0.2373,0.13894 0.3836,0.39225 0.3836,0.66765 v 3.782 c 0,0.1119 -0.0603,0.2151 -0.1574,0.2692 l -0.8889,0.5004 c -0.0111,0.0062 -0.0234,0.0111 -0.0357,0.0148 v -2.1 c 0,-0.2717 -0.1426,-0.5238 -0.3762,-0.664 l -3.56569,-2.1332 v -2.37047 c 0,-0.06885 0.01845,-0.13524 0.05287,-0.19426 0.10697,-0.18443 0.34427,-0.24713 0.5287,-0.13894 z m 1.7767,-2.79346 c 0.2385,0.13771 0.3848,0.39345 0.3848,0.66886 v 5.52425 c 0,0.1131 -0.0627,0.2176 -0.1623,0.2717 l -0.8422,0.4549 v -3.8459 c 0,-0.27174 -0.1427,-0.52256 -0.375,-0.66273 l -3.64438,-2.18608 v -2.24878 c 0,-0.06885 0.01844,-0.13525 0.05164,-0.19426 0.10697,-0.18443 0.34427,-0.24713 0.5287,-0.14017 z"
       fill="#00d395"
       id="path58" />
  </g>
</svg>
