<?xml version="1.0" encoding="utf-8"?>
<!-- Generator: Adobe Illustrator 24.0.1, SVG Export Plug-In . SVG Version: 6.00 Build 0)  -->
<svg version="1.1" id="Layer_1" xmlns="http://www.w3.org/2000/svg" xmlns:xlink="http://www.w3.org/1999/xlink" x="0px" y="0px"
	 viewBox="0 0 500 500" style="enable-background:new 0 0 500 500;" xml:space="preserve">
<style type="text/css">
	.st0{fill:#F5AC37;}
	.st1{fill:url(#SVGID_1_);}
	.st2{fill:url(#SVGID_2_);}
	.st3{fill:#FFFFFF;}
</style>
<circle class="st0" cx="250" cy="250" r="236"/>
<linearGradient id="SVGID_1_" gradientUnits="userSpaceOnUse" x1="664.9996" y1="182.9907" x2="665.0004" y2="183.1471">
	<stop  offset="0" style="stop-color:#FDAA0E"/>
	<stop  offset="1" style="stop-color:#FBC757"/>
</linearGradient>
<path class="st1" d="M667,183.1c-1.3-0.1-2.6-0.1-4-0.1L667,183.1z"/>
<linearGradient id="SVGID_2_" gradientUnits="userSpaceOnUse" x1="664.9998" y1="252.8793" x2="665.0004" y2="253.0075">
	<stop  offset="0" style="stop-color:#FDAA0E"/>
	<stop  offset="1" style="stop-color:#FBC757"/>
</linearGradient>
<path class="st2" d="M663,253c1.4,0,2.7,0,4-0.1v0.1H663z"/>
<path class="st3" d="M383,213.6h-26.1c-9.1-25.7-30.5-56.2-80.4-66.8c-6.2-1.3-12.6-2-19-2h-90.6v68.8H137v24.8h29.9v25.1H137v24.8
	h29.9V355c0,0,69.5,0.4,93.9,0c0.4,0,0.8,0,1.1,0c6,0,71.7-4.1,94.4-66.8H383v-24.8h-20.6c0.5-3.2,0.8-6.4,1.1-9.8
	c0,0,0.4-6-0.8-15.3H383V213.6z M189.2,167.9c0-0.4,0.4-0.8,0.8-0.8h64.3c11.7,0,23.3,2.2,34.1,6.7c22.2,9.2,34.5,24.8,41.3,39.8
	H189.2V167.9z M257.1,334.2H190c-0.4,0-0.8-0.4-0.8-0.8v-45.2h141C309.7,334.2,257.1,334.2,257.1,334.2z M338,253.7
	c-0.2,3.4-0.5,6.7-0.9,9.9H189.2v-25.1h147.7C338.3,247.5,338,253.7,338,253.7z"/>
</svg>
