<?xml version="1.0" encoding="utf-8"?>
<!-- Generator: Adobe Illustrator 24.0.1, SVG Export Plug-In . SVG Version: 6.00 Build 0)  -->
<svg version="1.1" id="Layer_1" xmlns="http://www.w3.org/2000/svg" xmlns:xlink="http://www.w3.org/1999/xlink" x="0px" y="0px"
	 viewBox="0 0 500 500" style="enable-background:new 0 0 500 500;" xml:space="preserve">
<style type="text/css">
	.st0{fill:#FFFFFF;}
</style>
<g>
	<path d="M257.4,220.4v31.9c10.5-2.1,15.8-8.1,15.6-16.9C272.9,226.8,267.6,221.7,257.4,220.4z M257.4,180.6v0.1
		c1.5,0.5,2.9,1,3.9,1.3C260.4,181.6,258.9,181.2,257.4,180.6z M257.4,283.6c-0.1,0-0.3,0.1-0.4,0.1c-1.1,0.3-1.7,0.8-1.9,1.6
		c0.6-0.6,1.3-1,2.3-1.4c1.5-0.5,3.4-0.8,5.8-1.3C261.2,283,258.7,283.3,257.4,283.6z M256.8,145.2c0.2,0,0.4,0.1,0.6,0.1V145
		C257.2,145.1,257,145.1,256.8,145.2z M254.7,148.4c0,0,0-0.1,0-0.1c0-0.3,0-0.6,0-0.9C254.7,147.7,254.7,148,254.7,148.4z M241,284
		c-0.2,0-0.3,0-0.5-0.1c0.7,0.2,1.4,0.5,1.9,0.9C242.3,284.4,241.8,284.1,241,284z M237.9,175v-29.2c-8.1,2.3-12.3,7.3-11.9,15.3
		c0,0.5,0.1,1,0.1,1.4c0.8,6.7,4.5,12.8,11.7,14.4c0.5,0.1,1.1,0.2,1.6,0.3v-2C239,175.2,238.5,175.1,237.9,175z M254.7,148.4
		c0,0,0-0.1,0-0.1c0-0.3,0-0.6,0-0.9C254.7,147.7,254.7,148,254.7,148.4z M256.8,145.2c0.2,0,0.4,0.1,0.6,0.1V145
		C257.2,145.1,257,145.1,256.8,145.2z M237.9,175v-29.2c-8.1,2.3-12.3,7.3-11.9,15.3c0,0.5,0.1,1,0.1,1.4
		c0.8,6.7,4.5,12.8,11.7,14.4c0.5,0.1,1.1,0.2,1.6,0.3v-2C239,175.2,238.5,175.1,237.9,175z M241,284c-0.2,0-0.3,0-0.5-0.1
		c0.7,0.2,1.4,0.5,1.9,0.9C242.3,284.4,241.8,284.1,241,284z M254.7,148.4c0,0,0-0.1,0-0.1c0-0.3,0-0.6,0-0.9
		C254.7,147.7,254.7,148,254.7,148.4z M256.8,145.2c0.2,0,0.4,0.1,0.6,0.1V145C257.2,145.1,257,145.1,256.8,145.2z M257.4,220.4
		v31.9c10.5-2.1,15.8-8.1,15.6-16.9C272.9,226.8,267.6,221.7,257.4,220.4z M257.4,220.4v31.9c10.5-2.1,15.8-8.1,15.6-16.9
		C272.9,226.8,267.6,221.7,257.4,220.4z M256.8,145.2c0.2,0,0.4,0.1,0.6,0.1V145C257.2,145.1,257,145.1,256.8,145.2z M254.7,148.4
		c0,0,0-0.1,0-0.1c0-0.3,0-0.6,0-0.9C254.7,147.7,254.7,148,254.7,148.4z M241,284c-0.2,0-0.3,0-0.5-0.1c0.7,0.2,1.4,0.5,1.9,0.9
		C242.3,284.4,241.8,284.1,241,284z M237.9,175v-29.2c-8.1,2.3-12.3,7.3-11.9,15.3c0,0.5,0.1,1,0.1,1.4c0.8,6.7,4.5,12.8,11.7,14.4
		c0.5,0.1,1.1,0.2,1.6,0.3v-2C239,175.2,238.5,175.1,237.9,175z M237.9,175v-29.2c-8.1,2.3-12.3,7.3-11.9,15.3c0,0.5,0.1,1,0.1,1.4
		c0.8,6.7,4.5,12.8,11.7,14.4c0.5,0.1,1.1,0.2,1.6,0.3v-2C239,175.2,238.5,175.1,237.9,175z M241,284c-0.2,0-0.3,0-0.5-0.1
		c0.7,0.2,1.4,0.5,1.9,0.9C242.3,284.4,241.8,284.1,241,284z M254.7,148.4c0,0,0-0.1,0-0.1c0-0.3,0-0.6,0-0.9
		C254.7,147.7,254.7,148,254.7,148.4z M256.8,145.2c0.2,0,0.4,0.1,0.6,0.1V145C257.2,145.1,257,145.1,256.8,145.2z M257.4,220.4
		v31.9c10.5-2.1,15.8-8.1,15.6-16.9C272.9,226.8,267.6,221.7,257.4,220.4z M257.4,220.4v31.9c10.5-2.1,15.8-8.1,15.6-16.9
		C272.9,226.8,267.6,221.7,257.4,220.4z M256.8,145.2c0.2,0,0.4,0.1,0.6,0.1V145C257.2,145.1,257,145.1,256.8,145.2z M254.7,148.4
		c0,0,0-0.1,0-0.1c0-0.3,0-0.6,0-0.9C254.7,147.7,254.7,148,254.7,148.4z M241,284c-0.2,0-0.3,0-0.5-0.1c0.7,0.2,1.4,0.5,1.9,0.9
		C242.3,284.4,241.8,284.1,241,284z M237.9,175v-29.2c-8.1,2.3-12.3,7.3-11.9,15.3c0,0.5,0.1,1,0.1,1.4c0.8,6.7,4.5,12.8,11.7,14.4
		c0.5,0.1,1.1,0.2,1.6,0.3v-2C239,175.2,238.5,175.1,237.9,175z M237.9,175v-29.2c-8.1,2.3-12.3,7.3-11.9,15.3c0,0.5,0.1,1,0.1,1.4
		c0.8,6.7,4.5,12.8,11.7,14.4c0.5,0.1,1.1,0.2,1.6,0.3v-2C239,175.2,238.5,175.1,237.9,175z M237.9,283.4c-3-0.5-6.6-0.7-10.3-1
		c3.2,0.4,7.3,0.9,10.3,1.3c1,0.1,1.9,0.3,2.6,0.3C239.8,283.7,238.9,283.5,237.9,283.4z M241,284c-0.2,0-0.3,0-0.5-0.1
		c0.7,0.2,1.4,0.5,1.9,0.9C242.3,284.4,241.8,284.1,241,284z M248.2,92.8h1.7C249.4,92.8,248.9,92.8,248.2,92.8z M254.7,148.4
		c0,0,0-0.1,0-0.1c0-0.3,0-0.6,0-0.9C254.7,147.7,254.7,148,254.7,148.4z M256.8,145.2c0.2,0,0.4,0.1,0.6,0.1V145
		C257.2,145.1,257,145.1,256.8,145.2z M257.4,283.6c-0.1,0-0.3,0.1-0.4,0.1c-1.1,0.3-1.7,0.8-1.9,1.6c0.6-0.6,1.3-1,2.3-1.4
		c1.5-0.5,3.4-0.8,5.8-1.3C261.2,283,258.7,283.3,257.4,283.6z M257.4,180.6v0.1c1.5,0.5,2.9,1,3.9,1.3
		C260.4,181.6,258.9,181.2,257.4,180.6z M257.4,220.4v31.9c10.5-2.1,15.8-8.1,15.6-16.9C272.9,226.8,267.6,221.7,257.4,220.4z
		 M272.9,165.4c13.2,0.6,26.5,0.3,40.1,0.3C299.4,165.7,272.9,165.4,272.9,165.4z M119.3,336.2c5.4,0,11.7,0.9,16.8,0.8
		c78.7-0.1,157.4,0,236.1,0h12.7c0,3.1,0,6.2,0,9.2v-10H119.3z M237.9,175v-29.2c-8.1,2.3-12.3,7.3-11.9,15.3c0,0.5,0.1,1,0.1,1.4
		c0.8,6.7,4.5,12.8,11.7,14.4c0.5,0.1,1.1,0.2,1.6,0.3v-2C239,175.2,238.5,175.1,237.9,175z M241,284c-0.2,0-0.3,0-0.5-0.1
		c0.7,0.2,1.4,0.5,1.9,0.9C242.3,284.4,241.8,284.1,241,284z M254.7,148.4c0,0,0-0.1,0-0.1c0-0.3,0-0.6,0-0.9
		C254.7,147.7,254.7,148,254.7,148.4z M256.8,145.2c0.2,0,0.4,0.1,0.6,0.1V145C257.2,145.1,257,145.1,256.8,145.2z M257.4,220.4
		v31.9c10.5-2.1,15.8-8.1,15.6-16.9C272.9,226.8,267.6,221.7,257.4,220.4z M257.4,220.4v31.9c10.5-2.1,15.8-8.1,15.6-16.9
		C272.9,226.8,267.6,221.7,257.4,220.4z M256.8,145.2c0.2,0,0.4,0.1,0.6,0.1V145C257.2,145.1,257,145.1,256.8,145.2z M254.7,148.4
		c0,0,0-0.1,0-0.1c0-0.3,0-0.6,0-0.9C254.7,147.7,254.7,148,254.7,148.4z M241,284c-0.2,0-0.3,0-0.5-0.1c0.7,0.2,1.4,0.5,1.9,0.9
		C242.3,284.4,241.8,284.1,241,284z M237.9,175v-29.2c-8.1,2.3-12.3,7.3-11.9,15.3c0,0.5,0.1,1,0.1,1.4c0.8,6.7,4.5,12.8,11.7,14.4
		c0.5,0.1,1.1,0.2,1.6,0.3v-2C239,175.2,238.5,175.1,237.9,175z M237.9,175v-29.2c-8.1,2.3-12.3,7.3-11.9,15.3c0,0.5,0.1,1,0.1,1.4
		c0.8,6.7,4.5,12.8,11.7,14.4c0.5,0.1,1.1,0.2,1.6,0.3v-2C239,175.2,238.5,175.1,237.9,175z M241,284c-0.2,0-0.3,0-0.5-0.1
		c0.7,0.2,1.4,0.5,1.9,0.9C242.3,284.4,241.8,284.1,241,284z M254.7,148.4c0,0,0-0.1,0-0.1c0-0.3,0-0.6,0-0.9
		C254.7,147.7,254.7,148,254.7,148.4z M256.8,145.2c0.2,0,0.4,0.1,0.6,0.1V145C257.2,145.1,257,145.1,256.8,145.2z M257.4,220.4
		v31.9c10.5-2.1,15.8-8.1,15.6-16.9C272.9,226.8,267.6,221.7,257.4,220.4z M257.4,220.4v31.9c10.5-2.1,15.8-8.1,15.6-16.9
		C272.9,226.8,267.6,221.7,257.4,220.4z M256.8,145.2c0.2,0,0.4,0.1,0.6,0.1V145C257.2,145.1,257,145.1,256.8,145.2z M254.7,148.4
		c0,0,0-0.1,0-0.1c0-0.3,0-0.6,0-0.9C254.7,147.7,254.7,148,254.7,148.4z M241,284c-0.2,0-0.3,0-0.5-0.1c0.7,0.2,1.4,0.5,1.9,0.9
		C242.3,284.4,241.8,284.1,241,284z M237.9,175v-29.2c-8.1,2.3-12.3,7.3-11.9,15.3c0,0.5,0.1,1,0.1,1.4c0.8,6.7,4.5,12.8,11.7,14.4
		c0.5,0.1,1.1,0.2,1.6,0.3v-2C239,175.2,238.5,175.1,237.9,175z M237.9,175v-29.2c-8.1,2.3-12.3,7.3-11.9,15.3c0,0.5,0.1,1,0.1,1.4
		c0.8,6.7,4.5,12.8,11.7,14.4c0.5,0.1,1.1,0.2,1.6,0.3v-2C239,175.2,238.5,175.1,237.9,175z M241,284c-0.2,0-0.3,0-0.5-0.1
		c0.7,0.2,1.4,0.5,1.9,0.9C242.3,284.4,241.8,284.1,241,284z M254.7,148.4c0,0,0-0.1,0-0.1c0-0.3,0-0.6,0-0.9
		C254.7,147.7,254.7,148,254.7,148.4z M256.8,145.2c0.2,0,0.4,0.1,0.6,0.1V145C257.2,145.1,257,145.1,256.8,145.2z M257.4,220.4
		v31.9c10.5-2.1,15.8-8.1,15.6-16.9C272.9,226.8,267.6,221.7,257.4,220.4z M257.4,220.4v31.9c10.5-2.1,15.8-8.1,15.6-16.9
		C272.9,226.8,267.6,221.7,257.4,220.4z M256.8,145.2c0.2,0,0.4,0.1,0.6,0.1V145C257.2,145.1,257,145.1,256.8,145.2z M254.7,148.4
		c0,0,0-0.1,0-0.1c0-0.3,0-0.6,0-0.9C254.7,147.7,254.7,148,254.7,148.4z M241,284c-0.2,0-0.3,0-0.5-0.1c0.7,0.2,1.4,0.5,1.9,0.9
		C242.3,284.4,241.8,284.1,241,284z M237.9,175v-29.2c-8.1,2.3-12.3,7.3-11.9,15.3c0,0.5,0.1,1,0.1,1.4c0.8,6.7,4.5,12.8,11.7,14.4
		c0.5,0.1,1.1,0.2,1.6,0.3v-2C239,175.2,238.5,175.1,237.9,175z M254.7,148.4c0,0,0-0.1,0-0.1c0-0.3,0-0.6,0-0.9
		C254.7,147.7,254.7,148,254.7,148.4z M254.7,148.4c0,0,0-0.1,0-0.1c0-0.3,0-0.6,0-0.9C254.7,147.7,254.7,148,254.7,148.4z"/>
	<path d="M282.8,8.2c-2.5-0.3-4.9-1.4-7.3-2.2h-51c-10.4,2.3-20.9,4.5-31.3,6.9C94.9,36,20.5,118.1,7.2,218.3
		c-0.3,2.5-1.4,4.9-2.2,7.3v51c2.4,10.8,4.5,21.6,7.1,32.3c23.3,98.3,106.4,172.6,207.3,185.3c134.4,16.9,256.9-78.1,273.7-212.3
		C509.8,148.1,415.9,25.8,282.8,8.2z M234.1,213.8c-8.5-3.1-17.5-5.1-26.1-8.3c-17.6-6.6-27.7-19.2-28.2-38.3
		c-0.5-19.3,7.6-34.4,24.8-43.3c0.4-0.2,0.9-0.5,1.3-0.6c0.1,0,0.2-0.1,0.2-0.1c8.2-3.7,23.6-6.9,31.6-7.9c0.1,0,0.1,0,0.2,0V92.8
		h10.3c0.6,0,1.2,0,1.7,0h7.5v21.3c0,0,6.8,1.2,9.7,1.7c29.4,5.1,44.6,17.8,46.1,42.9c0.1,1.9-0.2,3.8-0.3,7.1
		c-13.6,0-26.9,0.3-40.1-0.3c0,0,1.4-8.5,0.2-11.1c-3.9-8.1-8.6-7.6-15.6-9v35.3c1.5,0.6,3,1.1,3.9,1.4c0.2,0.1,0.4,0.1,0.6,0.2
		c9.3,3,19.1,4.7,28.1,8.1c16,6.1,26.8,17.1,29,34.9c2.3,18.8-3.4,35.2-19.4,45c-10.4,6.4-23.3,9.6-35.5,12.2
		c-0.3,0.1-0.6,0.1-0.9,0.2c-2.4,0.5-4.4,0.8-5.8,1.3v22.4h-19.5v-22.7c-3.1-0.4-7.2-0.9-10.3-1.3c-0.1,0-0.2,0-0.3,0
		c-0.2,0-0.4,0-0.6-0.1c-0.2,0-0.4,0-0.5-0.1c-27.8-2.9-44-17.9-48.2-42.2c-0.6-3.1-0.5-6.3-0.8-10.8c13.9,0,28.9-0.2,41.8,0.4
		c2,0.1,2.7,4.2,3.6,7c0.3,1,0.6,1.9,1,2.8c0.2,0.5,0.4,0.9,0.6,1.3c0.4,0.9,0.8,1.7,1.3,2.5c0.1,0.2,0.2,0.4,0.4,0.6
		c0.1,0.2,0.2,0.4,0.4,0.6c0.2,0.4,0.5,0.7,0.8,1c0.1,0.1,0.1,0.2,0.2,0.3c0.2,0.3,0.4,0.5,0.7,0.7c0,0.1,0.1,0.1,0.1,0.2
		c0.3,0.3,0.5,0.5,0.8,0.8c0.6,0.6,1.4,1.2,2.1,1.7c0.4,0.2,0.7,0.5,1.1,0.7c0.3,0.2,0.6,0.3,0.9,0.5c0.2,0.1,0.4,0.2,0.7,0.3
		c0.3,0.2,0.7,0.3,1.1,0.4c0.3,0.1,0.6,0.2,0.9,0.3c0.3,0.1,0.6,0.2,0.9,0.3c0.5,0.1,0.9,0.3,1.4,0.4v-35.7
		C236.8,215.2,235.3,214.2,234.1,213.8z M384.9,379.3h-5.9c-1.5,0.5-3.6,0-5.4,0c-40,0-79.9,0-119.8,0c-45,0-89.9,0-134.8,0.2
		c-1.8,0-3.3-0.1-4.7-0.2H106v-43h278.9V379.3z"/>
	<path class="st0" d="M256.8,145.2c0.2,0,0.4,0.1,0.6,0.1V145C257.2,145.1,257,145.1,256.8,145.2z M272.9,165.4
		c13.2,0.6,26.5,0.3,40.1,0.3C299.4,165.7,272.9,165.4,272.9,165.4z M254.7,148.4c0,0,0-0.1,0-0.1c0-0.3,0-0.6,0-0.9
		C254.7,147.7,254.7,148,254.7,148.4z M248.2,92.8h1.7C249.4,92.8,248.9,92.8,248.2,92.8z M237.9,175c-7.2-1.4-10.9-6-11.7-12.4
		c0.8,6.7,4.5,12.8,11.7,14.4c0.5,0.1,1.1,0.2,1.6,0.3v-2C239,175.2,238.5,175.1,237.9,175z M237.9,283.4c-3-0.5-6.6-0.7-10.3-1
		c3.2,0.4,7.3,0.9,10.3,1.3c1,0.1,1.9,0.3,2.6,0.3C239.8,283.7,238.9,283.5,237.9,283.4z"/>
	<path class="st0" d="M254.7,148.4c0,0,0-0.1,0-0.1c0-0.3,0-0.6,0-0.9C254.7,147.7,254.7,148,254.7,148.4z"/>
	<path class="st0" d="M319,225.2c-2.2-17.8-12.9-28.9-29-34.9c-9.1-3.4-18.8-5.2-28.1-8.1c-0.2-0.1-0.4-0.1-0.6-0.2
		c-1-0.3-2.5-0.8-3.9-1.3v-35.4c-0.2,0-0.4-0.1-0.6-0.1c0.2,0,0.4-0.1,0.6-0.2v0.3c7.1,1.4,11.8,0.9,15.6,9
		c1.2,2.6-0.2,11.1-0.2,11.1s26.5,0.3,40.1,0.3c0.2-3.3,0.4-5.2,0.3-7.1c-1.6-25.1-16.7-37.7-46.1-42.9c-3-0.5-9.7-1.7-9.7-1.7V92.8
		h-19.5v22.4c0,0-0.1,0-0.2,0c-8,1-23.4,4.2-31.6,7.9c-0.1,0-0.2,0.1-0.2,0.1c-0.5,0.2-0.9,0.4-1.3,0.6c-17.2,8.9-25.3,24-24.8,43.3
		c0.5,19.1,10.6,31.8,28.2,38.3c8.5,3.2,17.5,5.1,26.1,8.3c1.2,0.5,2.7,1.5,3.9,2.6v35.7c-0.5-0.1-0.9-0.2-1.4-0.4
		c-0.3-0.1-0.6-0.2-0.9-0.3c-0.3-0.1-0.6-0.2-0.9-0.3c-0.4-0.1-0.7-0.3-1.1-0.4c-0.2-0.1-0.5-0.2-0.7-0.3c-0.3-0.2-0.6-0.3-0.9-0.5
		c-0.4-0.2-0.8-0.5-1.1-0.7c-0.8-0.5-1.5-1.1-2.1-1.7c-0.3-0.3-0.6-0.5-0.8-0.8c-0.1,0-0.1-0.1-0.1-0.2c-0.3-0.2-0.5-0.5-0.7-0.7
		c-0.1-0.1-0.1-0.2-0.2-0.3c-0.3-0.3-0.6-0.7-0.8-1c-0.2-0.2-0.3-0.4-0.4-0.6c-0.1-0.2-0.3-0.4-0.4-0.6c-0.5-0.8-0.9-1.6-1.3-2.5
		c-0.2-0.4-0.4-0.9-0.6-1.3c-0.4-0.9-0.7-1.9-1-2.8c-0.8-2.8-1.5-6.9-3.6-7c-12.9-0.6-28-0.4-41.8-0.4c0.3,4.5,0.3,7.7,0.8,10.8
		c4.2,24.3,20.5,39.3,48.2,42.2c0.2,0,0.4,0,0.5,0.1c0.2,0,0.4,0,0.6,0.1c0.1,0,0.2,0,0.3,0c3.8,0.3,7.4,0.5,10.3,1
		c0.9,0.2,1.8,0.4,2.6,0.6c0.2,0,0.3,0,0.5,0.1c0.8,0.1,1.3,0.4,1.5,0.8c-0.6-0.4-1.2-0.6-1.9-0.9c-0.7-0.1-1.6-0.2-2.6-0.3v22.7
		h19.5V284c-1,0.3-1.7,0.7-2.3,1.4c0.3-0.9,0.8-1.3,1.9-1.6c0.1,0,0.2-0.1,0.4-0.1c1.3-0.3,3.8-0.6,5.8-0.9c0.3-0.1,0.6-0.1,0.9-0.2
		c12.2-2.6,25-5.8,35.5-12.2C315.6,260.4,321.3,244,319,225.2z M239.6,177.2c-0.6-0.1-1.1-0.2-1.6-0.3c-7.2-1.6-10.9-7.7-11.7-14.4
		c-0.1-0.5-0.1-1-0.1-1.4c-0.5-8,3.7-13,11.9-15.3V175c0.5,0.1,1.1,0.2,1.6,0.2V177.2z M254.7,148.2c0,0,0,0.1,0,0.1
		c0-0.3,0-0.7,0.1-1C254.8,147.7,254.7,147.9,254.7,148.2z M257.4,252.3v-31.9c10.2,1.2,15.5,6.4,15.6,15
		C273.2,244.3,267.9,250.2,257.4,252.3z"/>
	<path class="st0" d="M253.7,379.3c-45,0-89.9,0-134.8,0.2c-1.8,0-3.3-0.1-4.7-0.2H253.7z"/>
	<path class="st0" d="M378.9,379.3c-1.5,0.5-3.6,0-5.4,0c-40,0-79.9,0-119.8,0H378.9z"/>
	<path d="M273.1,235.4c0.2,8.8-5.2,14.8-15.6,16.9v-31.9C267.6,221.7,272.9,226.8,273.1,235.4z"/>
	<path d="M239.6,175.2v2c-0.6-0.1-1.1-0.2-1.6-0.3c-7.2-1.6-10.9-7.7-11.7-14.4c-0.1-0.5-0.1-1-0.1-1.4c-0.5-8,3.7-13,11.9-15.3V175
		C238.5,175.1,239,175.2,239.6,175.2z"/>
	<rect x="106" y="336.2" class="st0" width="278.9" height="43"/>
</g>
</svg>
