<?xml version="1.0" encoding="utf-8"?>
<!-- Generator: Adobe Illustrator 24.0.1, SVG Export Plug-In . SVG Version: 6.00 Build 0)  -->
<svg version="1.1" id="Layer_1" xmlns="http://www.w3.org/2000/svg" xmlns:xlink="http://www.w3.org/1999/xlink" x="0px" y="0px"
	 viewBox="0 0 500 500" style="enable-background:new 0 0 500 500;" xml:space="preserve">
<style type="text/css">
	.st0{fill:#FCB21D;}
</style>
<path class="st0" d="M250,5C114.9,5,5,114.9,5,250s109.9,245,245,245c135.1,0,245-109.9,245-245S385.1,5,250,5z M463.8,237.9
	c-11.9-8-30.8-19.4-55.7-30.3c1.2-3.3,1.9-6.8,1.9-10.5c0-16.5-13.3-29.8-29.8-29.8c-13.3,0-24.6,8.7-28.5,20.8
	c-18.6-4.9-38.9-8.7-60.8-10.8c-0.3-16.6-1.3-34.8-3-54.8c11.3-4.3,19.4-15.2,19.4-27.9c0-15.1-11.2-27.6-25.8-29.5
	c-1.2-8.8-2.5-18-3.9-27.5C378.8,50.6,458.1,134.6,463.8,237.9z M250,35.8c4,0,7.9,0.1,11.8,0.3c1.6,10.7,3.1,20.9,4.4,30.8
	c-10.9,4.4-18.6,15.1-18.6,27.7c0,14.8,10.8,27.2,25,29.5c1.3,15.1,2.2,29.2,2.6,42.3c-44.8-52.1-113.3-79.2-149.5-90.6
	C160.7,50.6,203.7,35.8,250,35.8z M110.8,87.3c30,8.7,105.8,35,152.5,88.8c-39.8,0.2-82.4,8-120.8,17.8
	c-5.2-8.8-14.7-14.6-25.6-14.6c-16.5,0-29.8,13.3-29.8,29.8c0,0.4,0,0.8,0.1,1.2c-20.8,6.9-38.2,13.5-50.2,18.2
	C42.5,172.3,70,122.3,110.8,87.3z M35.8,250c0-1.5,0-2.9,0.1-4.4c11.4-4.6,31.2-12.3,55.8-20.5c5.3,8.3,14.6,13.8,25.2,13.8
	c16.5,0,29.8-13.4,29.8-29.8v-0.2c41.3-10.6,87.5-18.7,128.8-17.2c0,0,0,0.1,0.1,0.1c-0.6,69.2-14.2,110.2-32.6,155.6
	c-2,5-4,9.7-5.9,14.3c-1.5-0.2-3-0.3-4.6-0.3c-16.5,0-29.8,13.3-29.8,29.8c0,9,4,17.1,10.3,22.5c-10.3,20.1-18.6,33.6-23.9,41.6
	C100.5,429,35.8,346.9,35.8,250z M343.2,442.8c-28.2,13.7-59.8,21.4-93.2,21.4c-15.5,0-30.7-1.7-45.3-4.8c5.5-8.6,13-21.4,22-38.9
	c1.8,0.4,3.7,0.5,5.7,0.5c16.5,0,29.8-13.4,29.8-29.8c0-9.4-4.4-17.8-11.1-23.3c2-4.7,4-9.7,6.1-14.8c17-41.9,30.1-80.2,33.1-138.7
	c13.1,21.9,24.4,46.2,33.5,70.9c-10.4,4.6-17.8,15.1-17.8,27.3c0,16.5,13.4,29.8,29.8,29.8c1.5,0,3-0.1,4.4-0.3
	C348.5,380.5,350.2,416.4,343.2,442.8z M360.9,433.2c4.1-27.3,1.5-61.4-6.5-97.2c6.9-5.4,11.3-13.9,11.3-23.4
	c0-15.4-11.7-28.1-26.7-29.7c-11.3-31.8-26.3-62.9-43.9-89.8c20.1,2.2,38.8,6,56,10.7c3.1,13.2,14.9,23,29.1,23
	c7,0,13.4-2.4,18.5-6.4c33.6,14.3,56.5,29.8,65.4,36.4C461.7,331.6,420.9,396.8,360.9,433.2z"/>
</svg>
