<?xml version="1.0" encoding="utf-8"?>
<!-- Generator: Adobe Illustrator 24.0.1, SVG Export Plug-In . SVG Version: 6.00 Build 0)  -->
<svg version="1.1" id="Layer_1" xmlns="http://www.w3.org/2000/svg" xmlns:xlink="http://www.w3.org/1999/xlink" x="0px" y="0px"
	 viewBox="0 0 500 500" style="enable-background:new 0 0 500 500;" xml:space="preserve">
<style type="text/css">
	.st0{fill:#2775C9;}
	.st1{fill:#FFFFFF;}
</style>
<g>
	<path class="st0" d="M260.4,5.7c9.7,1,19.6,1.2,29.2,2.9c53.7,9.2,99.9,33,137.5,72.6c42.2,44.5,64.9,97.6,67.7,159
		c0.1,1.8,0.2,19.5,0,21.6c-1.8,13.9-2.3,28.1-5.5,41.6c-17.2,73.9-59.5,129.1-126.4,164.7c-37.8,20.1-78.5,29.4-121.4,27.2
		c-14.8-0.8-29.7-2.2-44.1-5.4c-52.9-11.6-97.3-38-132.7-79C27.6,368,7.7,318.1,5.1,261.4c-0.1-2-0.2-19.9,0-22
		c1.8-13.9,2.5-28,5.5-41.6c11.7-52.8,38-97.2,79-132.6c42.9-37,92.8-56.8,149.5-59.4C241.2,5.6,258.5,5.5,260.4,5.7z M266.2,148.1
		c-0.1,0-0.2,0-0.2,0c0-3.1,0-6.3,0-9.4c0-0.3,0-0.5,0-0.8c-0.2-5-3.4-8.1-8.3-8.2c-4.9-0.1-9.8-0.1-14.8,0
		c-5.8,0.1-8.8,3.1-8.9,8.9c-0.1,6.1-0.1,12.3,0,18.4c0.1,3.1-1.1,4.2-4.1,4.8c-9.9,1.9-19.1,5.6-27.1,11.9
		c-16.1,12.5-20.9,29.3-18.4,48.8c2.2,16.4,11.4,27.8,26.5,33.6c10.3,4,21.4,6,32.3,8.8c9.2,2.3,18.6,4,27.7,6.7
		c6.4,1.9,11,6.4,12.7,13.3c3.4,13.2-2.5,25.3-15,31c-7.2,3.3-14.8,3.5-22.5,3.2c-18.1-0.6-30.2-9.3-33.1-25.6
		c-0.7-4.2-3.5-6.9-7.9-7.1c-6.1-0.3-12.3-0.2-18.4,0c-4.7,0.2-8.1,4.1-7.4,8.5c1.8,11.4,6,21.8,13.9,30.5
		c9.9,11,22.7,16.2,36.9,18.7c3.3,0.6,3.9,2,3.8,4.8c-0.1,6.1-0.1,12.3,0,18.4c0,5.8,2.7,9,8.5,9.4c5,0.3,10.1,0.3,15.1,0
		c5.6-0.4,8.2-3.6,8.3-9.2c0.1-5.6,0.3-11.2-0.1-16.8c-0.3-4.4,1-6.3,5.6-7.3c16.2-3.5,29.6-11.7,38.7-26c6.9-10.9,8.8-23,7.5-35.7
		c-1.5-14.1-7.3-25.6-19.6-33.2c-13.2-8.2-28.2-10.5-43.1-13.1c-8.4-1.5-17-3.1-25-6c-10.1-3.6-13.5-9.8-13.2-20.7
		c0.2-9.2,5.3-16.9,14.7-19.5c6.3-1.8,13.1-2.1,19.8-2.1c15.2-0.2,25.1,8.3,28.3,20.2c1,3.9,3.9,6.1,8.2,6c5.3-0.1,10.7,0.1,16,0
		c5.7-0.1,9-4.3,7.7-9.9c-4.4-18.7-15.5-31.6-33.6-38.2c-3.9-1.4-9.4-1.8-11.2-4.6C264.7,157.6,266.2,152.4,266.2,148.1z
		 M204.5,91.8C204.5,91.8,204.5,91.8,204.5,91.8c0-2.7,0.1-5.5,0-8.2c-0.2-4.5-3.2-7.3-7.7-7.2c-2,0.1-4.1,0.5-6,1.1
		c-30.4,10.5-56.9,27.1-78.2,51.3C73.2,173.3,58,225.3,67.1,283.9c5.6,35.5,21,66.7,45.2,93.4c22.3,24.6,49.3,42,81,52.2
		c6.5,2.1,11.1-1.4,11.2-8.2c0-4,0-7.9,0-11.9c0-7.4-2.4-10.3-9-13.4c-10.6-5.1-21.7-9.5-31.1-16.3c-50.7-36.5-73.2-86-65.6-148.2
		c4-33.2,18.8-61.6,42.1-85.5c15.3-15.7,33.2-27.4,53.6-35.4c8.3-3.2,10.1-6,10.1-14.7C204.5,94.5,204.5,93.2,204.5,91.8z
		 M295.5,414.3c0,1.9,0.2,3.9,0,5.7c-1,7.1,4.6,11.9,12.7,9.1c41.7-14.3,74.9-39.6,98.4-76.9c27.1-43,35.4-89.7,24.4-139.3
		c-11.4-50.9-39.9-90-84-117.7c-12.2-7.7-25.3-13.5-38.9-18c-8-2.6-12.5,0.6-12.5,8.9c0,3.6,0,7.1,0,10.7c0,7.8,2.1,10.8,9.3,13.5
		c18.7,7.2,35.7,17.4,49.9,31.4c38.9,38.2,55.2,84.4,45.6,138.2c-9.7,54.1-41.1,92-91.3,114.3C295.7,400.1,295.5,399.8,295.5,414.3z
		"/>
	<path class="st1" d="M266.2,148.1c0,4.2-1.5,9.5,0.4,12.4c1.9,2.8,7.3,3.1,11.2,4.6c18.1,6.6,29.2,19.5,33.6,38.2
		c1.3,5.6-2,9.8-7.7,9.9c-5.3,0.1-10.7,0-16,0c-4.3,0.1-7.2-2.1-8.2-6c-3.2-11.9-13.1-20.4-28.3-20.2c-6.6,0.1-13.5,0.4-19.8,2.1
		c-9.3,2.6-14.5,10.3-14.7,19.5c-0.3,10.8,3.1,17,13.2,20.7c8,2.9,16.5,4.5,25,6c14.9,2.6,29.9,5,43.1,13.1
		c12.3,7.6,18.1,19.1,19.6,33.2c1.3,12.8-0.5,24.8-7.5,35.7c-9.1,14.3-22.5,22.5-38.7,26c-4.6,1-5.9,2.9-5.6,7.3
		c0.4,5.6,0.1,11.2,0.1,16.8c-0.1,5.6-2.7,8.8-8.3,9.2c-5,0.4-10.1,0.4-15.1,0c-5.8-0.4-8.5-3.6-8.5-9.4c0-6.1-0.1-12.3,0-18.4
		c0.1-2.9-0.5-4.2-3.8-4.8c-14.1-2.5-27-7.8-36.9-18.7c-7.9-8.7-12.1-19.1-13.9-30.5c-0.7-4.5,2.7-8.4,7.4-8.5
		c6.1-0.2,12.3-0.2,18.4,0c4.3,0.2,7.1,2.9,7.9,7.1c2.9,16.4,15,25.1,33.1,25.6c7.7,0.2,15.2,0.1,22.5-3.2c12.4-5.8,18.3-17.8,15-31
		c-1.7-6.9-6.3-11.4-12.7-13.3c-9.1-2.7-18.5-4.4-27.7-6.7c-10.8-2.7-21.9-4.8-32.3-8.8c-15.1-5.8-24.3-17.3-26.5-33.6
		c-2.6-19.5,2.2-36.3,18.4-48.8c8-6.2,17.2-10,27.1-11.9c3-0.6,4.2-1.7,4.1-4.8c-0.2-6.1-0.1-12.3,0-18.4c0.1-5.8,3.1-8.8,8.9-8.9
		c4.9,0,9.8-0.1,14.8,0c4.9,0.1,8.1,3.3,8.3,8.2c0,0.3,0,0.5,0,0.8c0,3.1,0,6.3,0,9.4C266,148.1,266.1,148.1,266.2,148.1z"/>
	<path class="st1" d="M204.5,91.8c0,1.4,0,2.7,0,4.1c0,8.7-1.8,11.5-10.1,14.7c-20.4,7.9-38.3,19.7-53.6,35.4
		c-23.3,23.9-38,52.3-42.1,85.5c-7.5,62.2,15,111.8,65.6,148.2c9.4,6.8,20.5,11.2,31.1,16.3c6.6,3.2,9,6,9,13.4c0,4,0,7.9,0,11.9
		c-0.1,6.8-4.7,10.2-11.2,8.2c-31.6-10.2-58.7-27.6-81-52.2c-24.2-26.7-39.6-57.9-45.2-93.4c-9.2-58.6,6.1-110.5,45.4-155.1
		c21.4-24.2,47.8-40.8,78.2-51.3c1.9-0.7,4-1.1,6-1.1c4.5-0.1,7.5,2.7,7.7,7.2C204.6,86.3,204.5,89.1,204.5,91.8
		C204.5,91.8,204.5,91.8,204.5,91.8z"/>
	<path class="st1" d="M295.5,414.3c0-14.5,0.1-14.2,13.5-20.1c50.2-22.3,81.6-60.2,91.3-114.3c9.6-53.7-6.7-100-45.6-138.2
		c-14.3-14-31.2-24.2-49.9-31.4c-7.2-2.7-9.3-5.8-9.3-13.5c0-3.6,0-7.1,0-10.7c0-8.3,4.5-11.6,12.5-8.9c13.7,4.5,26.7,10.4,38.9,18
		c44.1,27.7,72.6,66.9,84,117.7c11.1,49.6,2.7,96.3-24.4,139.3c-23.5,37.3-56.7,62.6-98.4,76.9c-8.1,2.8-13.8-2-12.7-9.1
		C295.7,418.1,295.5,416.2,295.5,414.3z"/>
</g>
</svg>
