<?xml version="1.0" encoding="utf-8"?>
<!-- Generator: Adobe Illustrator 24.0.1, SVG Export Plug-In . SVG Version: 6.00 Build 0)  -->
<svg version="1.1" id="Layer_1" xmlns="http://www.w3.org/2000/svg" xmlns:xlink="http://www.w3.org/1999/xlink" x="0px" y="0px"
	 viewBox="0 0 500 500" style="enable-background:new 0 0 500 500;" xml:space="preserve">
<style type="text/css">
	.st0{fill:#27A17C;}
	.st1{fill:#FFFFFF;}
</style>
<g>
	<path class="st0" d="M19.9,250.3c0-1.5,0-3,0-4.6c0.2-1,0.5-2.1,0.5-3.1c0.4-6.4,0.4-12.9,1.1-19.3c1.6-14.7,4.5-29.1,8.8-43.2
		c6.8-22.2,16.6-42.9,29.6-62.2c7.7-11.5,16.4-22.2,26.1-32.2c13.1-13.5,27.6-25.3,43.5-35.3c23.7-14.9,49.4-25.2,76.8-31
		c14-2.9,28.2-4.7,42.5-4.8c1.1,0,2.2-0.3,3.3-0.5c1.2,0,2.4,0,3.7,0c1.1,0.2,2.2,0.5,3.3,0.5c7.9,0.5,15.8,0.7,23.7,1.6
		c15,1.8,29.8,5.2,44.2,10c13.5,4.5,26.6,10.1,39.1,16.9c29.1,16,53.7,37.2,73.8,63.6c18,23.7,31,50,39.1,78.6
		c5.3,18.7,8.2,37.8,8.4,57.3c0,1.2,0.4,2.4,0.5,3.6c0,1.2,0,2.4,0,3.7c-0.2,1-0.5,2.1-0.5,3.1c-0.5,7.3-0.8,14.6-1.5,21.8
		c-1.4,14.6-4.7,28.8-9,42.7c-3.6,11.7-8.2,22.9-13.6,33.9c-8.9,18.1-20.1,34.8-33.3,50c-14.4,16.6-30.9,30.8-49.4,42.8
		c-24.4,15.8-50.9,26.6-79.3,32.6c-14,3-28.2,4.6-42.5,4.7c-0.9,0-1.8,0.3-2.6,0.5c-1.5,0-3,0-4.6,0c-1-0.2-2.1-0.5-3.1-0.5
		c-9.6-0.8-19.3-1.2-28.8-2.5c-19.8-2.7-38.8-8.2-57.1-16.1c-30.6-13-57.1-31.7-79.7-56c-5.2-5.6-10.1-11.6-14.8-17.6
		c-18.2-23.6-31.1-49.9-39.2-78.6c-5.2-18.6-8.2-37.6-8.4-56.9C20.5,252.6,20.1,251.4,19.9,250.3z M361.6,128c-1,0-1.7,0-2.5,0
		c-62.8,0-125.7,0-188.5,0c-8,0-16-0.1-24-0.1c-0.4,0-1.1,0.7-1.3,1.2c-0.2,0.5,0.1,1.2,0.1,1.8c0,16,0,32,0,48c0,0.9,0,1.8,0,2.8
		c1.1-0.1,2-0.1,2.8-0.1c24.7,0,49.4,0,74,0c1.6,0,2.3,0.4,2.3,2.2c-0.1,9.8-0.1,19.7,0,29.5c0,1.7-0.5,2.2-2.2,2.3
		c-7,0.4-14,0.7-20.9,1.4c-9.4,1-18.8,2.2-28.2,3.5c-13.7,1.9-27.1,4.7-40.1,9.3c-5.8,2.1-11.5,4.5-16.4,8.5
		c-6.5,5.3-6.7,11.6-0.2,16.8c2.6,2.1,5.6,4,8.7,5.4c13,6.2,27,9.2,41.2,11.6c9.4,1.6,18.9,2.7,28.4,3.7c8.9,1,17.9,1.6,26.8,2.2
		c3,0.2,3,0.1,3,3.1c0,35,0,70.1,0,105.1c0,2.3,0.6,3,2.9,3c13.6-0.1,27.1,0,40.7,0c4,0,8.1-0.1,12.1,0c1.9,0.1,2.5-0.7,2.3-2.4
		c-0.1-0.8,0-1.5,0-2.3c0-34.2,0-68.4,0-102.6c0-1.2,0.2-2.5,0.3-3.7c8-0.6,15.8-0.9,23.5-1.7c9.4-1,18.7-2.2,28-3.5
		c12.8-1.8,25.5-4.4,37.7-8.6c6.6-2.3,13.1-4.9,18.6-9.5c5.8-5,6-11.2,0.1-15.9c-3.8-3-8.1-5.5-12.5-7.3
		c-18.3-7.5-37.7-10.6-57.2-12.9c-12-1.4-24-2.2-36.1-3.2c-1.9-0.2-2.4-0.8-2.4-2.6c0.1-9.5,0.1-19,0-28.6c0-2.2,0.5-2.9,2.8-2.9
		c11.5,0.1,23,0.1,34.5,0.1c13.3,0,26.5,0,39.8,0c1.4,0,2.2-0.1,2.2-1.9c-0.1-9.9-0.1-19.8-0.1-29.7
		C361.6,142.7,361.6,135.5,361.6,128z"/>
	<path class="st1" d="M361.6,128c0,7.5,0,14.7,0,21.8c0,9.9,0,19.8,0.1,29.7c0,1.8-0.8,1.9-2.2,1.9c-13.3,0-26.5,0-39.8,0
		c-11.5,0-23,0.1-34.5-0.1c-2.3,0-2.8,0.7-2.8,2.9c0.1,9.5,0.1,19,0,28.6c0,1.8,0.5,2.5,2.4,2.6c12,0.9,24.1,1.8,36.1,3.2
		c19.5,2.3,38.9,5.4,57.2,12.9c4.4,1.8,8.8,4.4,12.5,7.3c6,4.7,5.7,10.9-0.1,15.9c-5.4,4.7-11.9,7.3-18.6,9.5
		c-12.3,4.2-24.9,6.8-37.7,8.6c-9.3,1.3-18.7,2.6-28,3.5c-7.7,0.8-15.5,1.1-23.5,1.7c-0.1,1.2-0.3,2.4-0.3,3.7
		c0,34.2,0,68.4,0,102.6c0,0.8-0.1,1.5,0,2.3c0.1,1.7-0.4,2.4-2.3,2.4c-4-0.1-8.1,0-12.1,0c-13.6,0-27.1-0.1-40.7,0
		c-2.3,0-3-0.7-2.9-3c0.1-35,0-70.1,0-105.1c0-3,0-2.8-3-3.1c-8.9-0.7-17.9-1.3-26.8-2.2c-9.5-1-19-2.1-28.4-3.7
		c-14.1-2.4-28.1-5.4-41.2-11.6c-3.1-1.5-6-3.3-8.7-5.4c-6.5-5.2-6.3-11.5,0.2-16.8c4.9-3.9,10.5-6.4,16.4-8.5
		c13-4.6,26.5-7.5,40.1-9.3c9.4-1.3,18.8-2.5,28.2-3.5c7-0.7,13.9-1.1,20.9-1.4c1.7-0.1,2.2-0.6,2.2-2.3c-0.1-9.8-0.1-19.7,0-29.5
		c0-1.8-0.7-2.2-2.3-2.2c-24.7,0-49.4,0-74,0c-0.8,0-1.6,0.1-2.8,0.1c0-1,0-1.9,0-2.8c0-16,0-32,0-48c0-0.6-0.3-1.3-0.1-1.8
		c0.2-0.5,0.8-1.2,1.3-1.2c8,0,16,0.1,24,0.1c62.8,0,125.7,0,188.5,0C359.9,128,360.6,128,361.6,128z M282.8,220
		c-0.1,1.3-0.3,2.2-0.3,3.2c0,10.2,0,20.4,0,30.6c0,5.2,0,5.2-5.2,5.3c-10.3,0.2-20.5,0.5-30.8,0.4c-6.5,0-13.1-0.7-19.6-0.7
		c-2.4,0-2.5-1.1-2.5-2.9c0-11,0-21.9,0.1-32.9c0-2.3-0.7-3-2.9-2.7c-2.7,0.3-5.5,0.3-8.2,0.5c-9.1,0.8-18.2,1.3-27.2,2.5
		c-10.5,1.4-21,3.3-31.4,5.4c-8,1.6-15.8,3.9-22.9,8.1c-1.9,1.1-3.6,2.8-5.1,4.5c-1.5,1.7-1.5,4,0.1,5.6c2.1,2,4.3,4.1,6.9,5.4
		c11.2,5.7,23.4,8.1,35.6,10c12.4,1.9,24.8,3.2,37.3,4.3c10.5,0.9,21.1,1.6,31.6,1.6c16.6,0.1,33.2-0.4,49.8-0.8
		c7.1-0.2,14.3-0.6,21.4-1.5c10.9-1.3,21.9-2.8,32.7-4.7c7.7-1.4,15.4-3.5,23-5.7c4.8-1.4,9.4-3.5,13.1-7.1c3-2.9,3.2-6.1,0-8.8
		c-2.1-1.8-4.5-3.6-7-4.5c-7.4-2.6-14.9-5.3-22.6-7c-9.9-2.2-20-3.5-30.1-5c-5-0.7-10-1-15-1.5C296.8,221,290,220.5,282.8,220z"/>
	<path class="st0" d="M282.8,220c7.1,0.5,14,1,20.9,1.6c5,0.4,10,0.7,15,1.5c10.1,1.5,20.2,2.8,30.1,5c7.7,1.7,15.2,4.4,22.6,7
		c2.6,0.9,4.9,2.7,7,4.5c3.2,2.7,3,5.9,0,8.8c-3.7,3.6-8.3,5.7-13.1,7.1c-7.6,2.2-15.2,4.3-23,5.7c-10.8,2-21.8,3.4-32.7,4.7
		c-7.1,0.9-14.2,1.3-21.4,1.5c-16.6,0.4-33.2,0.9-49.8,0.8c-10.6,0-21.1-0.7-31.6-1.6c-12.5-1.1-24.9-2.4-37.3-4.3
		c-12.2-1.9-24.5-4.3-35.6-10c-2.6-1.3-4.8-3.4-6.9-5.4c-1.6-1.6-1.6-3.9-0.1-5.6c1.4-1.7,3.1-3.4,5.1-4.5
		c7.1-4.2,14.9-6.5,22.9-8.1c10.4-2.1,20.9-4,31.4-5.4c9-1.2,18.1-1.7,27.2-2.5c2.7-0.2,5.5-0.2,8.2-0.5c2.2-0.2,2.9,0.5,2.9,2.7
		c-0.1,11,0,21.9-0.1,32.9c0,1.8,0,2.9,2.5,2.9c6.5,0.1,13.1,0.7,19.6,0.7c10.3,0,20.5-0.2,30.8-0.4c5.2-0.1,5.2-0.1,5.2-5.3
		c0-10.2,0-20.4,0-30.6C282.5,222.3,282.7,221.3,282.8,220z"/>
</g>
</svg>
