<svg version="1.1" id="Layer_1" xmlns="http://www.w3.org/2000/svg" viewBox="0 0 385 260" style="enable-background:new 0 0 385 260;" xml:space="preserve" fill="#fff">
	<g>
		<animateTransform
				attributeName="transform"
				dur="4s"
				values="0, -10; 0, 0; 0, -10; 0, 0; 0, -10"
				keyTimes="0; 0.2; 0.5; 0.8; 1"
				fill="freeze"
				repeatCount="indefinite" />
		<path d="M54.6,2c-4.9-2.2-9.1,0.5-9.1,5.9c0,8.1,0,16.2,0,24.3c0,1.5-0.1,2.9-0.2,4.7H33.5c0-5.6,0-11.1,0-16.7c0-4,0-8,0-12
			c0-6-4.5-8.7-9.9-5.9C12.2,8.2,4.8,17.2,1.5,29.7c-0.1,0.2-0.1,0.4-0.2,0.7c-0.4,1.2-0.6,2.4-0.6,3.7l0,5.3c0,9.1,2.9,18,8.5,25.1
			c0.7,0.9,1.4,1.7,2.2,2.6c1.2,1.3,2.3,2.8,3.8,3.6c3.7,1.8,3.5,5,3.5,8.2c0,8-0.2,16,0.3,23.9c0.6,10.4,10.2,18.6,20.9,18.5
			c10-0.1,19.3-8.6,19.9-18.7c0.4-7.8,0.3-15.7,0.3-23.6c0-3.5,0.6-6,3.7-8.6C87,51.3,81.9,14.3,54.6,2z M61,55.8
			c-2.5,3.3-6,5.9-9.4,8.4c-2.3,1.7-3.5,3.6-3.5,6.5c0.1,9.7,0,19.4-0.1,29.1c0,5.1-3.7,9.3-8.3,9.3c-5.1,0-8.8-3.7-8.8-9.1
			c-0.1-9.5-0.3-18.9-0.1-28.4c0.1-3.7-1.3-6-4.4-7.9c-15.8-9.8-18.7-30.5-6.3-44.3c0.2-0.2,0.4-0.2,1.3-0.7c0,5.3,0.1,10.3,0,15.3
			c-0.2,10.6,4.5,15.4,15.1,15.2c2.9,0,5.7,0,8.6-0.1c7.3-0.2,12.1-4.9,12.3-12.3c0.2-5.9,0-11.7,0-18.1C67.9,27.4,69.5,44.6,61,55.8
			z"/>
	</g>
	<g>
		<animateTransform
				attributeName="transform"
				type="rotate"
				from="0 324.4 142.08"
				to="360 324.4 142.08"
				dur="7s"
				fill="freeze"
				repeatCount="indefinite" />
		<path d="M345.5,142.2c0.3,11.1-9.2,20.8-20.8,21.1c-11,0.3-20.9-9-21.3-19.9c-0.4-12,8.7-21.8,20.5-22.1
		C335.8,120.9,345.1,129.9,345.5,142.2z M315.5,142c0.1,5,4.2,9.3,8.9,9.2c5.2-0.1,9.1-4.2,9-9.5c-0.1-4.2-4.3-8.3-8.6-8.3
		C319.7,133.3,315.5,137.2,315.5,142z"/>
		<path d="M347.7,190.4c6.5,2.8,12.2,1.2,17.1-3.6c1.7-1.7,3.4-3.3,5-5.1c4.3-4.6,5.5-10,3.2-15.9c-1.3-3.2-0.6-5,2.5-6.1
			c2.2-0.8,3.9-2.1,5.3-3.7c2.4-2.8,3.6-6.5,3.6-10.2l0-7c0-3.7-1.2-7.3-3.6-10.1c-1.9-2.2-4.1-3.8-6.9-4.8c-0.9-0.3-1.7-3.2-1.2-4.4
			c3.1-7.5,1-13.6-4.7-18.8c-1.2-1.1-2.3-2.2-3.5-3.4c-4.8-4.8-10.4-5.8-16.6-3.5c-2.7,1-4.3,0.8-5.6-2.1c-3-6.6-8.1-9.9-15.4-9.6
			c-2.6,0.1-5.3-0.2-7.9,0.1c-5.7,0.6-9.7,3.7-12,8.9c-1.2,2.8-2.8,4.1-6.1,2.6c-4.6-2.1-9.5-1.8-13.5,1.3c-4.6,3.5-9.7,7.1-11.4,13
			c-0.9,3.2-0.6,7.1,0.2,10.5c0.7,3,0.5,4.6-2.3,5.9c-6,2.7-9.4,7.2-9.4,14c0,2.6-0.2,5.3,0,7.9c0.4,6.2,3.1,11,9.2,13.4
			c2.9,1.1,3.7,2.7,2.6,5.7c-2.5,6.5-1.3,12.2,3.8,17.1c4.3,4.1,7.9,9.4,14.8,9.1c2.3-0.1,4.7-0.6,6.9-1.3c2.6-0.8,4.2-0.3,5.2,2.4
			c2.6,6.5,7.7,9.5,14.6,9.6c2.1,0,4.2,0.1,6.4,0c6.9-0.2,11.9-3.1,14.5-9.8C343.3,190.1,345.1,189.3,347.7,190.4z M333.8,180.9
			c-2,0.6-2.8,1.3-2.7,3.5c0.2,5.3-0.5,5.9-5.7,5.7c-0.9,0-1.7-0.1-2.6,0c-4.2,0.1-5.2-0.7-4.9-5c0.2-2.9-0.8-3.7-3.4-4.5
			c-4.5-1.4-8.8-3.4-13.5-5.3c-6.2,5.1-6.1,5-11.9-0.7c-2.6-2.5-2.3-4.6,0.3-6.4c2.5-1.8,2.2-3.5,0.9-5.9c-1.8-3.4-3.3-7-4.4-10.7
			c-0.6-2.2-1.3-2.7-3.4-2.7c-5.5,0.1-5.9-0.5-5.8-6c0-1.1,0.1-2.3,0-3.4c-0.2-3,1.3-4.3,4.1-3.8c3.4,0.5,4.7-0.9,5.6-4.1
			c1.2-4.3,3.3-8.3,5.2-12.8c0.1,0.4,0.1,0.1,0-0.1c-1.4-1.9-4.5-4.6-4.1-5.7c1.4-2.9,4-5.2,6.5-7.5c2-1.8,3.5,0,4.7,1.4
			c1.9,2.4,3.5,2.6,6.2,0.9c3-1.9,6.5-3.3,10-4.1c2.7-0.6,3.3-1.8,3.3-4.3c0-4.8,0.3-5,5.1-5.1c0.1,0,0.2,0,0.4,0
			c7.2-0.1,7.2-0.1,7.8,7c0,0.5,0.2,1,0.2,1c5.7,2.4,11,4.6,16.5,6.9c6.5-5,6.5-5,11.1-0.2c3.6,3.7,3.6,3.7-1.3,9.7
			c2,5.3,3.8,10.4,6,15.4c0.4,0.9,2.3,1.5,3.5,1.5c4.7,0.1,5.1,0.4,5.1,5.1c0,1,0.1,2,0.1,3c0,4.5-0.5,5.2-5.1,5.2
			c-2.7,0-3.8,0.7-4.4,3.5c-0.8,3.6-2.5,7.1-4.2,10.3c-1.1,2.1-1.4,3.2,0.5,5c3.8,3.5,3.6,4-0.1,7.7c-0.7,0.7-1.5,1.4-2.1,2.2
			c-2.3,2.8-4.6,2.8-6.7,0c-1.8-2.4-3.3-2.3-5.9-0.8C341.2,178.5,337.5,179.8,333.8,180.9z"/>
		</g>
	<path d="M207.7,226.5c0,6.9,0,13.6,0,20.6c5.8,0,11.4,0,17,0c5.2,0.1,8.1,4,6.3,8.5c-1.2,2.8-3.5,3.6-6.3,3.6
		c-15.4,0-30.7,0-46.1,0.1c-11.1,0-22.2,0-33.3,0c-1.4,0-2.8,0.1-4.1-0.1c-3.4-0.4-5.7-3.1-5.7-6.3c0-3.1,2.7-5.7,6.2-5.7
		c5.7-0.1,11.4,0,17.5,0c0-6.9,0-13.6,0-20.9c-5,0-9.9,0-14.9,0c-30.6,0-61.2,0-91.7,0c-11.3,0-19.1-7.6-19.1-19
		c0-24.1,0-48.2,0-72.3c0-0.6,0.1-1.2,0.1-2.1c3.9,0,7.7,0,12,0c0,7.8,0,15.8,0,23.7c0,16.7-0.1,33.4-0.1,50.2
		c0,5.1,2.4,7.2,7.4,7.3c45.2,0,90.4,0.1,135.6,0.1c41.9,0,83.9,0,125.8,0c5.8,0,11.7,0,18.2,0c-2,5.4-5.4,9.6-10.7,10.6
		c-6.5,1.2-13.3,1.4-20,1.4c-30.8,0.1-61.7,0-92.5,0C208.9,226.2,208.5,226.3,207.7,226.5z M195.3,226.5c-8.1,0-15.7,0-23.5,0
		c0,7,0,13.8,0,20.4c8,0,15.6,0,23.5,0C195.3,240,195.3,233.4,195.3,226.5z"/>
	<path d="M333.3,70.3c-4.1,0-7.7,0-12,0c0-5.8,0-11.4,0-16.9c0-4.1,0-8.2,0-12.4c0-4.5-2.1-6.7-6.6-6.7c-23.5-0.1-46.9,0-70.4-0.1
		c-33.2,0-66.4,0-99.6,0c-17,0-34,0-50.9,0.1c-2.8,0-4-0.6-4.1-3.7c-0.1-2.7-1.1-5.3-1.8-8.5c7.2,0,14.1,0,21,0
		c29.2,0,58.4,0,87.6,0c27.1,0,54.2,0.1,81.3,0.1c12.5,0,25,0,37.5,0c9.9,0,17.8,7.3,18.2,17.1c0.3,9.3,0.1,18.7,0.1,28.1
		C333.5,68.4,333.4,69.4,333.3,70.3z"/>
	<path d="M232.1,124.1c-8.4-5.4-16.3-10.4-24.2-15.5c-3-2-6.1-3.9-9.1-5.9c-3.5-2.4-4.4-6-2.3-9c2-2.8,5.5-3.2,8.9-1
		c13.1,8.4,26.2,16.8,39.3,25.2c6.4,4.1,6.4,8.5,0.2,12.5c-12.6,8.2-25.3,16.4-38,24.6c-0.7,0.5-1.5,0.9-2.3,1.3
		c-3.5,1.7-6.7,0.9-8.5-2c-1.8-3-1-6.2,2.3-8.4c8.5-5.5,17-10.9,25.5-16.3C226.7,127.9,229.2,126.1,232.1,124.1z"/>
	<path d="M104.8,124.2c6.3,4.1,12.2,8,18.2,11.8c4.9,3.2,9.9,6.3,14.8,9.4c3.9,2.5,4.9,5.9,2.7,9.2c-1.9,2.8-5.4,3.4-8.9,1.1
		c-13.7-8.7-27.3-17.4-40.9-26.2c-4.7-3-4.3-7.9,0.7-11.1c12.4-8.1,24.9-16.1,37.4-24.1c1-0.7,2.1-1.4,3.1-2.1
		c3.4-2,6.7-1.3,8.8,1.8c1.8,2.7,1,6.2-2.2,8.3C127.4,109.6,116.4,116.7,104.8,124.2z"/>
	<path d="M157.5,163.3c-5.2,0.1-8-3.8-6.5-8.3c3-8.7,6.2-17.4,9.3-26c4.7-12.9,9.3-25.8,14.1-38.6c1.7-4.5,4.8-6.1,8.3-4.6
		c3.6,1.5,4.5,4.7,2.9,9.1c-7.6,20.8-15.1,41.7-22.7,62.5c-0.5,1.4-1.1,2.9-2.1,3.9C159.7,162.3,158.2,162.9,157.5,163.3z"/>
</svg>
