<?xml version="1.0" encoding="utf-8"?>
<!-- Generator: Adobe Illustrator 24.0.1, SVG Export Plug-In . SVG Version: 6.00 Build 0)  -->
<svg version="1.1" id="Layer_1" xmlns="http://www.w3.org/2000/svg" xmlns:xlink="http://www.w3.org/1999/xlink" x="0px" y="0px"
	 viewBox="0 0 100.3 100.3" style="enable-background:new 0 0 100.3 100.3;" xml:space="preserve">
<style type="text/css">
	.st0{fill:#FCB21D;}
</style>
<g>
	<g>
		<g>
			<path class="st0" d="M50.2,2.2c-26.5,0-48,21.5-48,48c0,26.5,21.5,48,48,48c26.5,0,48-21.5,48-48C98.2,23.7,76.6,2.2,50.2,2.2z
				 M91.4,47.8c-2.6-1.9-6-4.1-10.3-5.9c0.2-0.5,0.3-1.1,0.3-1.7c0-3.1-2.5-5.6-5.6-5.6c-2.5,0-4.6,1.6-5.3,3.8
				c-3.1-0.7-6.5-1.3-10.2-1.6c-0.9-0.1-1.8-0.1-2.7-0.2c0.1-3.7,0-7.4-0.2-11.2c2.3-0.7,4-2.8,4-5.4c0-3-2.3-5.4-5.2-5.6
				c-0.2-1.7-0.6-3.5-0.9-5.3C74.8,11.5,90.3,27.8,91.4,47.8z M50.2,8.9c0.9,0,1.8,0,2.7,0.1c0.4,2,0.7,3.9,1,5.8
				c-2.2,0.8-3.7,2.8-3.7,5.2c0,2.9,2.2,5.2,4.9,5.5v0c0.2,3.2,0.3,6.3,0.3,9.5c-9.1-11.2-22.3-16.3-29.4-18.3
				C32.7,11.8,41.1,8.9,50.2,8.9z M23.7,18.5C30,20.2,44.3,25,53.6,36.6c-8.4,0.1-16.8,1.6-24.1,3.5c-0.8-1.9-2.8-3.3-5.1-3.3
				c-3.1,0-5.6,2.5-5.6,5.6c0,0.3,0,0.7,0.1,1c-4.2,1.5-7.6,2.9-10,4C9.8,35.8,15.3,25.5,23.7,18.5z M8.9,50.2v-0.4
				c2.4-1.1,6.2-2.7,11-4.4c1,1.5,2.7,2.5,4.7,2.5c3.1,0,5.6-2.5,5.6-5.6v-0.1c7.6-2,16.4-3.5,25.2-3.4c-0.5,11.7-3,23-7.4,33.8
				c-0.3,0-0.7-0.1-1-0.1c-3.1,0-5.6,2.5-5.6,5.6c0,1.7,0.8,3.3,2.1,4.3c-1.3,2.5-2.7,5-4.3,7.5C21.6,85,8.9,69,8.9,50.2z
				 M69.3,86.8c-5.7,3-12.2,4.7-19.1,4.7c-3.1,0-6-0.3-8.9-1c1.4-2.3,2.8-4.7,4-7c0.5,0.1,1,0.2,1.5,0.2c3.1,0,5.6-2.5,5.6-5.6
				c0-1.9-1-3.6-2.5-4.6c4.1-10.2,6.6-20.7,7.4-31.6c3.1,5,5.7,10.2,7.6,15.4c-2.1,0.8-3.6,2.8-3.6,5.2c0,3.1,2.5,5.6,5.6,5.6
				c0.4,0,0.8,0,1.2-0.1C69.5,74.3,69.9,80.7,69.3,86.8z M71.6,85.4c0.5-6.5-0.1-12.7-1.4-18.5c1.4-1,2.3-2.6,2.3-4.5
				c0-3-2.3-5.4-5.2-5.6c-2.8-7.5-6.3-13.7-9.1-18c0.7,0,1.3,0.1,2,0.1c3.7,0.3,7.1,0.9,10.2,1.6c0.2,2.8,2.7,5.1,5.6,5.1
				c1.7,0,3.1-0.7,4.2-1.9c5,2.2,8.8,4.7,11.5,6.9C91.3,65.4,83.4,78.2,71.6,85.4z"/>
		</g>
	</g>
</g>
<image style="overflow:visible;" width="91" height="119" xlink:href="75862227.jpg"  transform="matrix(0.7499 0 0 0.7499 -70.84 -11.84)">
</image>
</svg>
