<?xml version="1.0" encoding="utf-8"?>
<!-- Generator: Adobe Illustrator 24.0.1, SVG Export Plug-In . SVG Version: 6.00 Build 0)  -->
<svg version="1.1" id="Layer_1" xmlns="http://www.w3.org/2000/svg" xmlns:xlink="http://www.w3.org/1999/xlink" x="0px" y="0px"
	 viewBox="0 0 575 576" style="enable-background:new 0 0 575 576;" xml:space="preserve">
<style type="text/css">
	.st0{fill:#FFFFFF;}
</style>
<g>
	<path class="st0" d="M575.5,113.7C569.7,50,516.1,0,450.8,0H124.2C59,0,5.4,49.9-0.5,113.6v348.8c5.7,61.4,55.6,109.9,117.6,113.4
		h340.8c62-3.5,111.9-52,117.6-113.4C575.5,352.8,575.5,211.3,575.5,113.7z M449.1,223.7c-1,21.3-2.2,42.6-4.1,63.9
		c-1.6,17.6-3.9,35.2-7.1,52.6c-4.5,24.4-12.2,47.7-28.6,67.2c-11.1,13.3-25.1,22.8-40,31.1c-24.1,13.4-48.6,26.2-71,42.4
		c-6.9,5-14.7,4.6-21.4-0.3c-23.1-16.8-48.5-29.7-73.3-43.7c-19.4-11-36.3-24.7-47.6-44.5c-7.9-13.9-13.4-28.8-16.4-44.4
		c-3.6-19-6.6-38.1-8.8-57.3c-1.8-15.7-2.5-31.6-3.2-47.4c-1-24.2-1.7-48.4-2.5-72.6c-0.5-8.3,1.4-15.7,9-20c3.5-2,8-3.1,12-3.1
		c16.8,0,33.5-0.6,49.9-3.9c28.8-5.7,54.9-17.2,77.8-35.8c9.7-7.9,17.9-8,27.7-0.2c25.6,20.7,54.8,33.2,87.4,37.3
		c13.3,1.7,26.9,1.8,40.3,2.3c8.6,0.3,15.8,2.9,19.5,11.3c1.2,2.8,1.9,6,1.9,9C450.2,186.2,449.9,204.9,449.1,223.7z M407.8,184.8
		c-13.3-1.4-26.6-2.6-39.6-5c-27.7-5.2-53.1-16.3-76.4-32.1c-3.1-2.1-5.1-2.2-8.1-0.1c-20.4,14.1-42.8,24-66.9,30.1
		c-16.2,4.2-32.7,6.8-49.5,7.2c-2.9,0.1-4,1.3-3.8,4.1c0.2,2.9,0,5.7,0,8.6c-0.2,0-0.3,0-0.5,0c1.6,26.8,3.3,53.5,4.9,80.3
		c1.3,21.7,4.3,43.1,9.1,64.4c6,26.4,19,47.3,43.5,60.6c21.9,11.9,43.3,24.9,64.9,37.4c2.1,1.3,3.6,0.7,5.4-0.5
		c5.7-3.7,11.3-7.4,17.1-10.7c17.1-9.8,34.4-19.3,51.5-29.2c13-7.5,23.4-17.7,30-31.5c5.8-12,9.5-24.7,11.6-37.8
		c2.5-15.5,4.6-31.1,6.1-46.7c1.7-18.4,2.7-36.8,3.7-55.2c0.7-13,0.8-25.9,1.4-38.9C412.3,186.4,411.3,185.1,407.8,184.8z
		 M407.8,184.8c-13.3-1.4-26.6-2.6-39.6-5c-27.7-5.2-53.1-16.3-76.4-32.1c-3.1-2.1-5.1-2.2-8.1-0.1c-20.4,14.1-42.8,24-66.9,30.1
		c-16.2,4.2-32.7,6.8-49.5,7.2c-2.9,0.1-4,1.3-3.8,4.1c0.2,2.9,0,5.7,0,8.6c-0.2,0-0.3,0-0.5,0c1.6,26.8,3.3,53.5,4.9,80.3
		c1.3,21.7,4.3,43.1,9.1,64.4c6,26.4,19,47.3,43.5,60.6c21.9,11.9,43.3,24.9,64.9,37.4c2.1,1.3,3.6,0.7,5.4-0.5
		c5.7-3.7,11.3-7.4,17.1-10.7c17.1-9.8,34.4-19.3,51.5-29.2c13-7.5,23.4-17.7,30-31.5c5.8-12,9.5-24.7,11.6-37.8
		c2.5-15.5,4.6-31.1,6.1-46.7c1.7-18.4,2.7-36.8,3.7-55.2c0.7-13,0.8-25.9,1.4-38.9C412.3,186.4,411.3,185.1,407.8,184.8z"/>
	<path class="st0" d="M412.1,189.7c-0.5,13-0.7,26-1.4,38.9c-1,18.4-2,36.9-3.7,55.2c-1.5,15.6-3.6,31.2-6.1,46.7
		c-2.1,13.1-5.8,25.8-11.6,37.8c-6.6,13.8-17,24-30,31.5c-17.1,9.9-34.3,19.4-51.5,29.2c-5.8,3.4-11.5,7.1-17.1,10.7
		c-1.8,1.2-3.3,1.7-5.4,0.5c-21.6-12.6-42.9-25.5-64.9-37.4C196,389.6,183,368.7,177,342.3c-4.8-21.2-7.8-42.7-9.1-64.4
		c-1.6-26.8-3.3-53.5-4.9-80.3c0.2,0,0.4,0,0.5,0c0-2.9,0.1-5.8,0-8.6c-0.2-2.9,0.9-4.1,3.8-4.1c16.8-0.4,33.3-3,49.5-7.2
		c24-6.2,46.5-16,66.9-30.1c3.1-2.1,5-2,8.1,0.1c23.3,15.8,48.7,26.9,76.4,32.1c13.1,2.5,26.4,3.6,39.6,5
		C411.3,185.1,412.3,186.4,412.1,189.7z"/>
</g>
</svg>
